<svg width="30" height="30" viewBox="0 0 30 30" fill="none" xmlns="http://www.w3.org/2000/svg">
<rect width="30" height="30" rx="8" fill="url(#paint0_linear_24_84)"/>
<path fill-rule="evenodd" clip-rule="evenodd" d="M17.3623 7.94134C16.5575 7.71848 15.7121 7.6847 14.8922 7.84264C14.0722 8.00057 13.2999 8.34595 12.6355 8.85177C11.9711 9.3576 11.4326 10.0102 11.0622 10.7586C10.6917 11.5069 10.4993 12.3308 10.5 13.1658C10.5004 13.7181 10.0531 14.1662 9.50079 14.1666C8.94851 14.1671 8.50044 13.7197 8.5 13.1674C8.4991 12.0241 8.76255 10.896 9.26977 9.8713C9.77699 8.84661 10.5143 7.95307 11.424 7.26048C12.3337 6.56788 13.3912 6.09499 14.5139 5.87874C15.6366 5.66249 16.7941 5.70874 17.896 6.01388C18.9979 6.31901 20.0143 6.87477 20.8659 7.63774C21.7174 8.40071 22.381 9.35023 22.8049 10.4121C23.2287 11.474 23.4013 12.6195 23.3092 13.7591C23.2171 14.8988 22.8627 16.0017 22.2738 16.9817C22.2562 17.011 22.2372 17.0393 22.2167 17.0666C21.6506 17.8214 20.9822 18.4937 20.2309 19.0641C19.5477 19.7183 19.0196 20.5175 18.6856 21.4029C18.6708 21.4422 18.6535 21.4805 18.6339 21.5177C18.2805 22.1855 17.7837 22.767 17.1793 23.2204C16.5748 23.6738 15.8776 23.988 15.1375 24.1403C14.3974 24.2927 13.6328 24.2795 12.8984 24.1018C12.1639 23.924 11.4779 23.5861 10.8894 23.1121C10.4593 22.7657 10.3914 22.1362 10.7378 21.7061C11.0842 21.2759 11.7138 21.208 12.1439 21.5545C12.5027 21.8435 12.921 22.0495 13.3689 22.1579C13.8167 22.2663 14.2829 22.2743 14.7342 22.1814C15.1854 22.0885 15.6106 21.897 15.9792 21.6205C16.3326 21.3554 16.6257 21.0184 16.8391 20.6321C17.2881 19.4714 17.9914 18.4257 18.8977 17.572C18.9249 17.5464 18.9535 17.5224 18.9833 17.5C19.5886 17.046 20.1277 16.5103 20.5854 15.9081C21 15.2033 21.2498 14.4135 21.3157 13.598C21.383 12.7657 21.2569 11.9291 20.9474 11.1535C20.6378 10.378 20.1532 9.68453 19.5313 9.12731C18.9093 8.57008 18.167 8.16419 17.3623 7.94134Z" fill="white"/>
<path fill-rule="evenodd" clip-rule="evenodd" d="M16.6213 11.532C16.3533 11.4141 16.06 11.3653 15.7683 11.3901C15.4765 11.4149 15.1957 11.5125 14.9514 11.6739C14.7072 11.8354 14.5074 12.0556 14.3702 12.3143C14.2331 12.573 14.1631 12.8619 14.1666 13.1547C14.1732 13.707 13.7309 14.16 13.1787 14.1666C12.6264 14.1732 12.1734 13.7309 12.1668 13.1786C12.1593 12.5513 12.3093 11.9321 12.6031 11.3777C12.8969 10.8233 13.3251 10.3516 13.8485 10.0056C14.3719 9.65956 14.9737 9.45041 15.5989 9.39727C16.224 9.34412 16.8525 9.44868 17.4268 9.70136C18.001 9.95404 18.5027 10.3468 18.8859 10.8436C19.2691 11.3404 19.5215 11.9254 19.62 12.545C19.7185 13.1646 19.66 13.7991 19.4498 14.3902C19.2395 14.9814 18.8844 15.5103 18.4168 15.9286C18.0052 16.2969 17.373 16.2617 17.0047 15.8501C16.6365 15.4385 16.6717 14.8063 17.0833 14.4381C17.3015 14.2428 17.4673 13.996 17.5654 13.7201C17.6635 13.4443 17.6908 13.1482 17.6448 12.859C17.5988 12.5699 17.481 12.2969 17.3022 12.065C17.1234 11.8332 16.8893 11.6499 16.6213 11.532Z" fill="white"/>
<defs>
<linearGradient id="paint0_linear_24_84" x1="15" y1="0" x2="15" y2="30" gradientUnits="userSpaceOnUse">
<stop stop-color="#404040"/>
<stop offset="1" stop-color="#171717"/>
</linearGradient>
</defs>
</svg>
